# File units = meters
mtllib 3d Arrow.mtl
g Part 1
v 0.00235942 -0.0769189 0.000519347 
v 0.00219261 -0.0769189 0.00101441 
v 0.00192328 -0.0769189 0.00146204 
v 0.00156402 -0.0769189 0.00184131 
v 0.00113163 -0.0769189 0.00213447 
v 0.000646321 -0.0769189 0.00232784 
v 0.000130794 -0.0769189 0.00241235 
v -0.000390849 -0.0769189 0.00238407 
v -0.000894216 -0.0769189 0.00224431 
v -0.00135577 -0.0769189 0.00199961 
v -0.00175393 -0.0769189 0.00166141 
v -0.00207008 -0.0769189 0.00124553 
v -0.00228943 -0.0769189 0.0007714 
v -0.00240174 -0.0769189 0.000261204 
v -0.00240174 -0.0769189 -0.000261204 
v -0.00228943 -0.0769189 -0.0007714 
v -0.00207008 -0.0769189 -0.00124553 
v -0.00175393 -0.0769189 -0.00166141 
v -0.00135577 -0.0769189 -0.00199961 
v -0.000894216 -0.0769189 -0.00224431 
v -0.000390849 -0.0769189 -0.00238407 
v 0.000130794 -0.0769189 -0.00241235 
v 0.000646321 -0.0769189 -0.00232784 
v 0.00113163 -0.0769189 -0.00213447 
v 0.00156402 -0.0769189 -0.00184131 
v 0.00192328 -0.0769189 -0.00146204 
v 0.00219261 -0.0769189 -0.00101441 
v 0.00235942 -0.0769189 -0.000519347 
v 0.0024159 -0.0769189 0 
v 0 -0.0769189 0 
v 0.0024159 -8.38183e-21 -5.91724e-19 
v 0.00235942 -8.18587e-21 0.000519347 
v 0.00219261 -7.60714e-21 0.00101441 
v 0.00192328 -6.67272e-21 0.00146204 
v 0.00156402 -5.42628e-21 0.00184131 
v 0.00113163 -3.92612e-21 0.00213447 
v 0.000646321 -2.24238e-21 0.00232784 
v 0.000130794 -4.53783e-22 0.00241235 
v -0.000390849 1.35603e-21 0.00238407 
v -0.000894216 3.10243e-21 0.00224431 
v -0.00135577 4.70377e-21 0.00199961 
v -0.00175393 6.08517e-21 0.00166141 
v -0.00207008 7.18203e-21 0.00124553 
v -0.00228943 7.94307e-21 0.0007714 
v -0.00240174 8.33269e-21 0.000261204 
v -0.00240174 8.33269e-21 -0.000261204 
v -0.00228943 7.94307e-21 -0.0007714 
v -0.00207008 7.18203e-21 -0.00124553 
v -0.00175393 6.08517e-21 -0.00166141 
v -0.00135577 4.70377e-21 -0.00199961 
v -0.000894216 3.10243e-21 -0.00224431 
v -0.000390849 1.35603e-21 -0.00238407 
v 0.000130794 -4.53783e-22 -0.00241235 
v 0.000646321 -2.24238e-21 -0.00232784 
v 0.00113163 -3.92612e-21 -0.00213447 
v 0.00156402 -5.42628e-21 -0.00184131 
v 0.00192328 -6.67272e-21 -0.00146204 
v 0.00219261 -7.60714e-21 -0.00101441 
v 0.00235942 -8.18587e-21 -0.000519347 
v 0.000329341 -1.14263e-21 0.00607434 
v -0.000984163 3.4145e-21 0.00600313 
v -0.00225165 7.81198e-21 0.00565121 
v 0.00484285 -1.6802e-20 0.00368144 
v 0.00393822 -1.36635e-20 0.00463643 
v -0.00341385 1.18442e-20 0.00503505 
v 0.00284945 -9.88603e-21 0.00537464 
v -0.00441642 1.53225e-20 0.00418346 
v -0.00521249 1.80845e-20 0.00313625 
v -0.00576483 2.00008e-20 0.0019424 
v 0.00162745 -5.64634e-21 0.00586153 
v -0.00604761 2.09818e-20 0.000657717 
v -0.00604761 2.09818e-20 -0.000657717 
v -0.00225165 7.81198e-21 -0.00565121 
v -0.000984163 3.4145e-21 -0.00600313 
v 0.000329341 -1.14263e-21 -0.00607434 
v 0.00162745 -5.64634e-21 -0.00586153 
v 0.00284945 -9.88603e-21 -0.00537464 
v 0.00393822 -1.36635e-20 -0.00463643 
v -0.00576483 2.00008e-20 -0.0019424 
v -0.00521249 1.80845e-20 -0.00313625 
v -0.00441642 1.53225e-20 -0.00418346 
v -0.00341385 1.18442e-20 -0.00503505 
v 0.00484285 -1.6802e-20 -0.00368144 
v 0.00552102 -1.91549e-20 -0.0025543 
v 0.00594104 -2.06121e-20 -0.00130772 
v 0.00594104 -2.06121e-20 0.00130772 
v 0.00552102 -1.91549e-20 0.0025543 
v 0.00608327 -2.11056e-20 0 
v -4.90874e-19 0.0205485 0 
vn -3.46945e-18 -1 0 
vn 1 -3.46945e-18 0 
vn 0.976621 -3.38833e-18 0.21497 
vn 0.907575 -3.14878e-18 0.419889 
vn 0.796093 -2.762e-18 0.605174 
vn 0.647386 -2.24607e-18 0.762162 
vn 0.468408 -1.62512e-18 0.883512 
vn 0.267528 -9.28175e-19 0.96355 
vn 0.0541389 -1.87832e-19 0.998533 
vn -0.161782 5.61294e-19 0.986827 
vn -0.370138 1.28417e-18 0.928977 
vn -0.561187 1.94701e-18 0.827689 
vn -0.725995 2.5188e-18 0.687699 
vn -0.856857 2.97282e-18 0.515554 
vn -0.947653 3.28783e-18 0.319302 
vn -0.994138 3.44911e-18 0.108119 
vn -0.994138 3.44911e-18 -0.108119 
vn -0.947653 3.28783e-18 -0.319302 
vn -0.856857 2.97282e-18 -0.515554 
vn -0.725995 2.5188e-18 -0.687699 
vn -0.561187 1.94701e-18 -0.827689 
vn -0.370138 1.28417e-18 -0.928977 
vn -0.161782 5.61294e-19 -0.986827 
vn 0.0541389 -1.87832e-19 -0.998533 
vn 0.267528 -9.28175e-19 -0.96355 
vn 0.468408 -1.62512e-18 -0.883512 
vn 0.647386 -2.24607e-18 -0.762162 
vn 0.796093 -2.762e-18 -0.605174 
vn 0.907575 -3.14878e-18 -0.419889 
vn 0.976621 -3.38833e-18 -0.21497 
vn -3.46945e-18 -1 0 
vn 0.958864 0.283866 0 
vn 0.936446 0.283866 -0.206127 
vn 0.953243 0.283866 -0.103671 
vn 0.870241 0.283866 -0.402617 
vn 0.90867 0.283866 -0.306167 
vn 0.763345 0.283866 -0.58028 
vn 0.821609 0.283866 -0.494346 
vn 0.620755 0.283866 -0.73081 
vn 0.696131 0.283866 -0.65941 
vn 0.44914 0.283866 -0.847168 
vn 0.538102 0.283866 -0.793641 
vn 0.256523 0.283866 -0.923913 
vn 0.354912 0.283866 -0.890762 
vn 0.0519118 0.283866 -0.957458 
vn 0.155127 0.283866 -0.946232 
vn -0.155127 0.283866 -0.946232 
vn -0.0519118 0.283866 -0.957458 
vn -0.354912 0.283866 -0.890762 
vn -0.256523 0.283866 -0.923913 
vn -0.538102 0.283866 -0.793641 
vn -0.44914 0.283866 -0.847168 
vn -0.696131 0.283866 -0.65941 
vn -0.620755 0.283866 -0.73081 
vn -0.821609 0.283866 -0.494346 
vn -0.763345 0.283866 -0.58028 
vn -0.90867 0.283866 -0.306167 
vn -0.870241 0.283866 -0.402617 
vn -0.953243 0.283866 -0.103671 
vn -0.936446 0.283866 -0.206127 
vn -0.953243 0.283866 0.103671 
vn -0.958864 0.283866 -7.34215e-16 
vn -0.90867 0.283866 0.306167 
vn -0.936446 0.283866 0.206127 
vn -0.821609 0.283866 0.494346 
vn -0.870241 0.283866 0.402617 
vn -0.696131 0.283866 0.65941 
vn -0.763345 0.283866 0.58028 
vn -0.538102 0.283866 0.793641 
vn -0.620755 0.283866 0.73081 
vn -0.354912 0.283866 0.890762 
vn -0.44914 0.283866 0.847168 
vn -0.155127 0.283866 0.946232 
vn -0.256523 0.283866 0.923913 
vn 0.0519118 0.283866 0.957458 
vn -0.0519118 0.283866 0.957458 
vn 0.256523 0.283866 0.923913 
vn 0.155127 0.283866 0.946232 
vn 0.44914 0.283866 0.847168 
vn 0.354912 0.283866 0.890762 
vn 0.620755 0.283866 0.73081 
vn 0.538102 0.283866 0.793641 
vn 0.763345 0.283866 0.58028 
vn 0.696131 0.283866 0.65941 
vn 0.870241 0.283866 0.402617 
vn 0.821609 0.283866 0.494346 
vn 0.936446 0.283866 0.206127 
vn 0.90867 0.283866 0.306167 
vn 0.953243 0.283866 0.103671 
usemtl 0.615686_0.811765_0.929412_0.000000_0.000000
o mesh0
f 30//1 1//1 2//1 
f 2//1 3//1 30//1 
f 3//1 4//1 30//1 
f 4//1 5//1 30//1 
f 5//1 6//1 30//1 
f 6//1 7//1 30//1 
f 7//1 8//1 30//1 
f 8//1 9//1 30//1 
f 9//1 10//1 30//1 
f 10//1 11//1 30//1 
f 11//1 12//1 30//1 
f 12//1 13//1 30//1 
f 13//1 14//1 30//1 
f 14//1 15//1 30//1 
f 15//1 16//1 30//1 
f 16//1 17//1 30//1 
f 17//1 18//1 30//1 
f 18//1 19//1 30//1 
f 19//1 20//1 30//1 
f 20//1 21//1 30//1 
f 21//1 22//1 30//1 
f 22//1 23//1 30//1 
f 23//1 24//1 30//1 
f 24//1 25//1 30//1 
f 25//1 26//1 30//1 
f 26//1 27//1 30//1 
f 27//1 28//1 30//1 
f 28//1 29//1 30//1 
f 29//1 1//1 30//1 
o mesh1
f 29//2 31//2 32//3 
f 1//3 32//3 33//4 
f 2//4 33//4 34//5 
f 3//5 34//5 35//6 
f 4//6 35//6 36//7 
f 5//7 36//7 37//8 
f 6//8 37//8 38//9 
f 7//9 38//9 39//10 
f 8//10 39//10 40//11 
f 9//11 40//11 41//12 
f 10//12 41//12 42//13 
f 11//13 42//13 43//14 
f 12//14 43//14 44//15 
f 13//15 44//15 45//16 
f 14//16 45//16 46//17 
f 15//17 46//17 47//18 
f 16//18 47//18 48//19 
f 17//19 48//19 49//20 
f 18//20 49//20 50//21 
f 19//21 50//21 51//22 
f 20//22 51//22 52//23 
f 21//23 52//23 53//24 
f 22//24 53//24 54//25 
f 23//25 54//25 55//26 
f 24//26 55//26 56//27 
f 25//27 56//27 57//28 
f 26//28 57//28 58//29 
f 27//29 58//29 59//30 
f 28//30 59//30 31//2 
f 31//2 29//2 28//30 
f 59//30 28//30 27//29 
f 58//29 27//29 26//28 
f 57//28 26//28 25//27 
f 56//27 25//27 24//26 
f 55//26 24//26 23//25 
f 54//25 23//25 22//24 
f 53//24 22//24 21//23 
f 52//23 21//23 20//22 
f 51//22 20//22 19//21 
f 50//21 19//21 18//20 
f 49//20 18//20 17//19 
f 48//19 17//19 16//18 
f 47//18 16//18 15//17 
f 46//17 15//17 14//16 
f 45//16 14//16 13//15 
f 44//15 13//15 12//14 
f 43//14 12//14 11//13 
f 42//13 11//13 10//12 
f 41//12 10//12 9//11 
f 40//11 9//11 8//10 
f 39//10 8//10 7//9 
f 38//9 7//9 6//8 
f 37//8 6//8 5//7 
f 36//7 5//7 4//6 
f 35//6 4//6 3//5 
f 34//5 3//5 2//4 
f 33//4 2//4 1//3 
f 32//3 1//3 29//2 
o mesh2
f 60//31 38//31 37//31 
f 60//31 61//31 39//31 
f 39//31 38//31 60//31 
f 61//31 62//31 40//31 
f 63//31 34//31 33//31 
f 63//31 64//31 35//31 
f 40//31 39//31 61//31 
f 62//31 65//31 41//31 
f 35//31 34//31 63//31 
f 64//31 66//31 36//31 
f 41//31 40//31 62//31 
f 65//31 67//31 42//31 
f 67//31 68//31 43//31 
f 68//31 69//31 44//31 
f 36//31 35//31 64//31 
f 66//31 70//31 37//31 
f 42//31 41//31 65//31 
f 44//31 43//31 68//31 
f 71//31 45//31 44//31 
f 71//31 72//31 46//31 
f 73//31 74//31 52//31 
f 74//31 75//31 53//31 
f 76//31 77//31 55//31 
f 77//31 78//31 56//31 
f 37//31 36//31 66//31 
f 43//31 42//31 67//31 
f 46//31 45//31 71//31 
f 72//31 79//31 47//31 
f 79//31 80//31 48//31 
f 80//31 81//31 49//31 
f 81//31 82//31 50//31 
f 82//31 73//31 51//31 
f 53//31 52//31 74//31 
f 75//31 76//31 54//31 
f 56//31 55//31 77//31 
f 78//31 83//31 57//31 
f 37//31 70//31 60//31 
f 47//31 46//31 72//31 
f 49//31 48//31 80//31 
f 51//31 50//31 82//31 
f 54//31 53//31 75//31 
f 57//31 56//31 78//31 
f 83//31 84//31 58//31 
f 84//31 85//31 59//31 
f 86//31 32//31 31//31 
f 86//31 87//31 33//31 
f 44//31 69//31 71//31 
f 50//31 49//31 81//31 
f 55//31 54//31 76//31 
f 59//31 58//31 84//31 
f 33//31 32//31 86//31 
f 48//31 47//31 79//31 
f 58//31 57//31 83//31 
f 85//31 88//31 31//31 
f 33//31 87//31 63//31 
f 31//31 59//31 85//31 
f 52//31 51//31 73//31 
f 31//31 88//31 86//31 
o mesh3
f 88//32 85//33 89//34 
f 85//33 84//35 89//36 
f 84//35 83//37 89//38 
f 83//37 78//39 89//40 
f 78//39 77//41 89//42 
f 77//41 76//43 89//44 
f 76//43 75//45 89//46 
f 75//45 74//47 89//48 
f 74//47 73//49 89//50 
f 73//49 82//51 89//52 
f 82//51 81//53 89//54 
f 81//53 80//55 89//56 
f 80//55 79//57 89//58 
f 79//57 72//59 89//60 
f 72//59 71//61 89//62 
f 71//61 69//63 89//64 
f 69//63 68//65 89//66 
f 68//65 67//67 89//68 
f 67//67 65//69 89//70 
f 65//69 62//71 89//72 
f 62//71 61//73 89//74 
f 61//73 60//75 89//76 
f 60//75 70//77 89//78 
f 70//77 66//79 89//80 
f 66//79 64//81 89//82 
f 64//81 63//83 89//84 
f 63//83 87//85 89//86 
f 87//85 86//87 89//88 
f 86//87 88//32 89//89 
